<svg width="102" height="13" fill="none" xmlns="http://www.w3.org/2000/svg"><path d="M5.52.704h1.36l1.504 3.952L9.904.704h1.36L9.296 5.648l1.952 4.688L15.088.64h1.568L11.904 12h-1.248L8.4 6.64 6.128 12H4.88L.144.64h1.552l3.856 9.696 1.936-4.688L5.52.704zM23.927 12.08c-.8 0-1.525-.16-2.176-.48a5.445 5.445 0 01-1.696-1.296 6.247 6.247 0 01-1.088-1.856 6.098 6.098 0 01-.384-2.128 5.9 5.9 0 01.4-2.16 6.124 6.124 0 011.136-1.84 5.42 5.42 0 011.712-1.28c.651-.32 1.36-.48 2.128-.48.8 0 1.526.165 2.176.496.651.33 1.211.773 1.68 1.328a6.25 6.25 0 011.088 1.856 6.011 6.011 0 01-.016 4.272 5.968 5.968 0 01-1.136 1.84 5.35 5.35 0 01-1.696 1.264 4.88 4.88 0 01-2.128.464zM20.04 6.32c0 .576.091 1.136.272 1.68.192.533.459 1.008.8 1.424.342.416.752.747 1.232.992s1.014.368 1.6.368c.608 0 1.152-.128 1.632-.384s.886-.597 1.216-1.024a4.46 4.46 0 00.768-1.44 4.991 4.991 0 00.272-1.616c0-.576-.096-1.13-.288-1.664a4.35 4.35 0 00-.8-1.424 3.57 3.57 0 00-1.232-.992 3.333 3.333 0 00-1.568-.368c-.608 0-1.152.128-1.632.384-.48.245-.89.581-1.232 1.008-.33.427-.586.907-.768 1.44a4.894 4.894 0 00-.272 1.616zM42.712 12V3.328L38.968 10h-.88l-3.76-6.672V12h-1.44V.64h1.52l4.112 7.376L42.648.64h1.504V12h-1.44zM51.928.64h1.217L57.785 12h-1.536l-1.345-3.328h-4.768L48.808 12h-1.535L51.928.64zm2.657 6.912l-2.049-5.248-2.111 5.248h4.16zm5.468 3.328l7.328-8.96h-7.184V.64h8.864v1.12l-7.2 8.96h7.2V12h-9.008v-1.12zM72.594 12V.64h1.44V12h-1.44zm7.197-8.704V12h-1.44V.64h1.216l6.944 8.88V.656h1.44V12h-1.312L79.79 3.296zm17.032 8.784c-.746 0-1.445-.16-2.096-.48a5.72 5.72 0 01-1.68-1.312 6.343 6.343 0 01-1.12-1.856 5.925 5.925 0 01-.4-2.144c0-.768.133-1.493.4-2.176a6.041 6.041 0 011.104-1.84c.48-.533 1.04-.95 1.68-1.248A4.856 4.856 0 0196.823.56c1.099 0 2.006.23 2.72.688a4.425 4.425 0 011.616 1.792l-1.104.768c-.33-.661-.784-1.152-1.36-1.472a3.854 3.854 0 00-1.904-.48c-.576 0-1.099.123-1.568.368a3.8 3.8 0 00-1.216 1.008 4.7 4.7 0 00-.768 1.424 5.428 5.428 0 00-.256 1.664c0 .608.096 1.184.288 1.728.203.533.486 1.008.848 1.424.363.405.784.725 1.264.96s.998.352 1.552.352c.65 0 1.27-.165 1.856-.496.587-.33 1.142-.837 1.664-1.52v1.488c-1.024 1.216-2.234 1.824-3.632 1.824zm3.456-4.656h-2.448V6.336h3.664V12h-1.216V7.424z" fill="#000"/></svg>